# xmcd
#
# Track frame offsets:
# 150
# 10945
# 21372
# 39386
# 51426
# 66170
# 77492
# 92307
# 110059
# 121911
# 137800
# 159815
# 173012
# 187794
# 200921
# 211023
# 220975
# 241839
# 256854
# 273768
# 287695
# 302297
# 314724
#
# Disc length: 4420 seconds
#
# Revision: 1
# Processed by: cddbd v1.4PL0 Copyright (c) Steve Scherf et al.
# Submitted via: CedeCatalogueitor 2.5 http://usuarios.lycos.es/kakasboy
#
DISCID=35114217
DTITLE=Frank Sinatra - The Capitol Years
DYEAR=1900
DGENRE=
TTITLE0=Ey Jealus Lover
TTITLE1=Your'e Sensational
TTITLE2=Close To You
TTITLE3=Stars Feel On Alabama
TTITLE4=I Got Plenty Of Nothing
TTITLE5=I Wish I Were In Love Again
TTITLE6=The Lady Is A Tramps
TTITLE7=Night And Day
TTITLE8=The Lonesome Road
TTITLE9=If I Has You
TTITLE10=Where Are You
TTITLE11=I'ma Fool To Want You
TTITLE12=Witchcraft
TTITLE13=Something Wonderful Happens In Summer
TTITLE14=All The Way
TTITLE15=Chicago
TTITLE16=Let0s Get Away From It All
TTITLE17=Autunm In New York
TTITLE18=Come Fly With Me
TTITLE19=Everybody's Loves Somebody
TTITLE20=It's The Same Old Dream
TTITLE21=Put Your Dream Away
TTITLE22=Here Goes
EXTD=
EXTT0=
EXTT1=
EXTT2=
EXTT3=
EXTT4=
EXTT5=
EXTT6=
EXTT7=
EXTT8=
EXTT9=
EXTT10=
EXTT11=
EXTT12=
EXTT13=
EXTT14=
EXTT15=
EXTT16=
EXTT17=
EXTT18=
EXTT19=
EXTT20=
EXTT21=
EXTT22=
PLAYORDER=
